<?xml version="1.0" encoding="UTF-8" standalone="no"?>
<!-- Created with Inkscape (http://www.inkscape.org/) -->
<svg
   width="70.851196mm"
   height="21.957943mm"
   viewBox="0 0 70.851196 21.957943"
   version="1.1"
   id="svg5"
   xmlns="http://www.w3.org/2000/svg"
   >
  <g
     id="layer1"
     transform="translate(-26.808371,-55.459912)">
    <g
       id="g10148">
      <g
         id="g10133"
         transform="matrix(0.90342404,0,0,0.90342404,6.0103049,7.4999453)"
      >
        <circle
           style="fill:none;stroke-width:0.7;stroke-linejoin:round;stroke-miterlimit:4;stroke-dasharray:none;paint-order:markers fill stroke"
           id="path1086"
           cx="36.481152"
           cy="60.634022"
           r="1.4799412" />
        <path
           style="fill:none;stroke:#000000;stroke-width:0.7;stroke-linecap:butt;stroke-linejoin:round;stroke-miterlimit:4;stroke-dasharray:none;stroke-opacity:1"
           d="m 29.803797,67.980873 -2.114202,-0.10571 v 2.219911 l 0.334749,0.475696 6.307368,0.21142 0.898536,1.374231 1.321376,-0.01762 -0.03524,-1.198048 -1.356613,-1.497559 -1.60327,-0.986628 -2.589897,-0.281893"
           id="path1566" />
        <path
           style="fill:none;stroke:#000000;stroke-width:0.7;stroke-linecap:butt;stroke-linejoin:round;stroke-miterlimit:4;stroke-dasharray:none;stroke-opacity:1"
           d="m 37.908237,72.17404 0.880917,-1.303758 6.554026,-0.140947 0.21142,-2.818936 -5.038848,0.387604 -2.625133,1.162811 -1.374235,1.479939 0.03524,1.198048 z"
           id="path1568" />
        <path
           style="fill:none;stroke:#000000;stroke-width:0.7;stroke-linecap:butt;stroke-linejoin:round;stroke-miterlimit:4;stroke-dasharray:none;stroke-opacity:1"
           d="m 28.024344,70.57077 -0.951391,0.510932 0.03524,0.52855 0.369985,0.299512 6.342605,-0.01762 0.546169,1.057101 0.493314,0.264275 h 3.417959 l 0.493314,-0.334749 0.475695,-0.969009 4.563153,-0.05285"
           id="path1570" />
        <path
           style="fill:none;stroke:#000000;stroke-width:0.7;stroke-linecap:butt;stroke-linejoin:round;stroke-miterlimit:4;stroke-dasharray:none;stroke-opacity:1"
           d="m 44.973195,71.839291 h 0.828062 l 0.21142,-0.739971 -0.669497,-0.369985"
           id="path1572" />
        <path
           style="fill:none;stroke:#000000;stroke-width:0.7;stroke-linecap:butt;stroke-linejoin:round;stroke-miterlimit:4;stroke-dasharray:none;stroke-opacity:1"
           d="m 37.257619,57.199471 c -0.629206,-0.09693 -1.286296,-0.0049 -1.864634,0.261262 -0.578338,0.26612 -1.075717,0.705276 -1.411419,1.2462 -0.283884,0.457428 -0.452012,0.984356 -0.498398,1.520713 -0.02404,0.277931 -0.0141,0.567094 0.09974,0.821778 0.06224,0.139243 0.155125,0.265329 0.27307,0.36203 0.117945,0.0967 0.261092,0.163451 0.411859,0.186503 0.144833,0.02215 0.294962,0.0038 0.432211,-0.04749 0.13725,-0.05128 0.261643,-0.134962 0.364877,-0.238933 0.148616,-0.149677 0.253612,-0.342169 0.298994,-0.548155 -0.0765,-0.259307 -0.08056,-0.539581 -0.01159,-0.800992 0.06897,-0.261411 0.21077,-0.503203 0.405244,-0.691014 0.194474,-0.18781 0.44106,-0.321096 0.704716,-0.380917 0.263656,-0.05982 0.543619,-0.046 0.800102,0.03949 0.256483,0.08549 0.488745,0.242417 0.663778,0.448466 0.175032,0.20605 0.29233,0.460631 0.335222,0.727564 0.04289,0.266933 0.01126,0.545445 -0.09041,0.795957 -0.10167,0.250512 -0.273077,0.472299 -0.489865,0.633842 -0.192684,0.143582 -0.416597,0.238142 -0.637527,0.332655 -0.220931,0.09451 -0.443998,0.191932 -0.633195,0.340079 -0.196236,0.153659 -0.349751,0.358107 -0.459146,0.582055 -0.109395,0.223947 -0.175775,0.46723 -0.213589,0.713583 -0.04965,0.323471 -0.04986,0.660021 0.04983,0.971728 0.04861,0.151995 0.121427,0.297772 0.226017,0.418297 0.10459,0.120525 0.242287,0.214881 0.396885,0.254438 0.146553,0.0375 0.303992,0.02453 0.446339,-0.02666 0.142347,-0.0512 0.269901,-0.139481 0.375893,-0.247414 0.170405,-0.173526 0.287758,-0.404873 0.298993,-0.647819 0.0037,-0.079 -0.0036,-0.15924 0.01361,-0.236429 0.01515,-0.06797 0.04888,-0.130801 0.09102,-0.186245 0.04214,-0.05544 0.09261,-0.103985 0.144532,-0.150396 0.389235,-0.347946 0.867655,-0.586851 1.245805,-0.946812 0.246704,-0.234838 0.445877,-0.517479 0.597987,-0.822232 0.347325,-0.695864 0.445277,-1.513036 0.272253,-2.271273 -0.173025,-0.758237 -0.615769,-1.452025 -1.230577,-1.928337"
           id="path1574"
         />
        <ellipse
           style="fill:none;stroke:none;stroke-width:0.7;stroke-linejoin:round;stroke-miterlimit:4;stroke-dasharray:none;paint-order:markers fill stroke"
           id="path1600"
           cx="36.559891"
           cy="66.917656"
           rx="0.99664426"
           ry="1.0215604" />
        <circle
           style="fill:none;stroke:#000000;stroke-width:0.7;stroke-linejoin:round;stroke-miterlimit:4;stroke-dasharray:none;paint-order:markers fill stroke"
           id="path2472"
           cx="36.534"
           cy="66.914963"
           r="0.84568071" />
      </g>
      <path
         style="fill:none;stroke:#000000;stroke-width:0.519171;stroke-linecap:butt;stroke-linejoin:miter;stroke-miterlimit:4;stroke-dasharray:none;stroke-opacity:1"
         d="m 50.834341,56.52139 -0.08966,19.834987"
         id="path2587"
         />
      <text
         xml:space="preserve"
         style="font-style:normal;font-variant:normal;font-weight:bold;font-stretch:normal;font-size:13.2547px;line-height:1.25;font-family:'Noto Serif';-inkscape-font-specification:'Noto Serif, Bold';font-variant-ligatures:normal;font-variant-caps:normal;font-variant-numeric:normal;font-variant-east-asian:normal;stroke-width:0.331368;stroke-miterlimit:4;stroke-dasharray:none"
         x="52.308605"
         y="70.395248"
         id="text7727"
         transform="scale(0.99327909,1.0067664)"
         ><tspan
           id="tspan7725"
           style="font-style:normal;font-variant:normal;font-weight:bold;font-stretch:normal;font-size:13.2547px;font-family:'Frank Ruehl CLM';-inkscape-font-specification:'Frank Ruehl CLM, Bold';font-variant-ligatures:normal;font-variant-caps:normal;font-variant-numeric:normal;font-variant-east-asian:normal;stroke-width:0.331368;stroke-miterlimit:4;stroke-dasharray:none"
           x="52.308605"
           y="70.395248"
           dy="-4.7671137">WEB </tspan><tspan
           style="font-style:normal;font-variant:normal;font-weight:bold;font-stretch:normal;font-size:13.2547px;font-family:'Frank Ruehl CLM';-inkscape-font-specification:'Frank Ruehl CLM, Bold';font-variant-ligatures:normal;font-variant-caps:normal;font-variant-numeric:normal;font-variant-east-asian:normal;stroke-width:0.331368;stroke-miterlimit:4;stroke-dasharray:none"
           x="52.308605"
           y="87.158516"
           id="tspan28759"
           dy="-11.9"
           dx="0 0 0 0.60529411">READS</tspan></text>
    </g>
  </g>
</svg>
